# File created by Blade
# Date/Time:  Fri Jan 16 17:52:57 2015
#---------------------------------------------------------
:version 1.10
:name HOM
:units
  mass 1.0
  length 1.000000
  angle deg
:documentation
     Acclaim Skeleton File
:root
   axis xyz
   order TX TY TZ RX RY RZ
   position 0.000000 0.000000 0.000000
   orientation 0 0 0
:bonedata
   begin
      id 1
      name Spine_dum
      direction 0.000000 1.000000 0.000000
      length 7.170412
      axis 0.0 0.0 0.0 xyz
   end
   begin
      id 2
      name LeftUpLeg_dum
      direction 1.000000 0.000000 0.000000
      length 4.318350
      axis 0.0 0.0 0.0 xyz
   end
   begin
      id 3
      name RightUpLeg_dum
      direction -1.000000 0.000000 0.000000
      length 4.318350
      axis 0.0 0.0 0.0 xyz
   end
   begin
      id 4
      name Spine
      direction 0.000000 1.000000 0.000000
      length 0.000000
      axis 0.0 0.0 0.0 xyz
      dof rx ry rz
   end
   begin
      id 5
      name Spine_dum1
      direction 0.000000 1.000000 0.000000
      length 14.276153
      axis 0.0 0.0 0.0 xyz
   end
   begin
      id 6
      name Spine_dum2
      direction 0.000000 1.000000 0.000000
      length 10.718243
      axis 0.0 0.0 0.0 xyz
   end
   begin
      id 7
      name Spine_dum3
      direction 0.000000 1.000000 0.000000
      length 10.718243
      axis 0.0 0.0 0.0 xyz
   end
   begin
      id 8
      name Head
      direction 0.000000 1.000000 0.000000
      length 4.527550
      axis 0.0 0.0 0.0 xyz
      dof rx ry rz
   end
   begin
      id 9
      name LeftShoulder
      direction 1.000000 0.000000 0.000000
      length 7.058872
      axis 0.0 0.0 -90.0 xyz
      dof rx ry rz
   end
   begin
      id 10
      name LeftArm
      direction 1.000000 0.000000 0.000000
      length 10.955525
      axis 0.0 0.0 -90.0 xyz
      dof rx ry rz
   end
   begin
      id 11
      name LeftForeArm
      direction 1.000000 0.000000 0.000000
      length 8.193716
      axis 0.0 0.0 -90.0 xyz
      dof ry rz rx
   end
   begin
      id 12
      name LeftHand
      direction 0.000000 0.000000 0.000000
      length 0.000000
      axis 0.0 0.0 -90.0 xyz
      dof rx ry rz
   end
   begin
      id 13
      name LeftHand_dum1
      direction 0.000000 0.000000 0.000000
      length 0.000000
      axis 0.0 0.0 -90.0 xyz
   end
   begin
      id 14
      name LeftHand_dum2
      direction 1.000000 0.000000 0.000000
      length 3.937000
      axis 0.0 0.0 -90.0 xyz
   end
   begin
      id 15
      name LeftHandThumb1
      direction 0.000000 0.000000 1.000000
      length 3.937000
      axis 0.0 0.0 -90.0 xyz
      dof rx rz ry
   end
   begin
      id 16
      name RightShoulder
      direction -1.000000 0.000000 0.000000
      length 7.058872
      axis 0.0 0.0 90.0 xyz
      dof rx ry rz
   end
   begin
      id 17
      name RightArm
      direction -1.000000 0.000000 0.000000
      length 10.955525
      axis 0.0 0.0 90.0 xyz
      dof rx ry rz
   end
   begin
      id 18
      name RightForeArm
      direction -1.000000 0.000000 0.000000
      length 8.193716
      axis 0.0 0.0 90.0 xyz
      dof ry rz rx
   end
   begin
      id 19
      name RightHand
      direction 0.000000 0.000000 0.000000
      length 0.000000
      axis 0.0 0.0 90.0 xyz
      dof rx ry rz
   end
   begin
      id 20
      name RightHand_dum1
      direction 0.000000 0.000000 0.000000
      length 0.000000
      axis 0.0 0.0 90.0 xyz
   end
   begin
      id 21
      name RightHand_dum2
      direction -1.000000 0.000000 0.000000
      length 3.937000
      axis 0.0 0.0 90.0 xyz
   end
   begin
      id 22
      name RightHandThumb1
      direction 0.000000 0.000000 1.000000
      length 3.937000
      axis 0.0 0.0 90.0 xyz
      dof rx rz ry
   end
   begin
      id 23
      name LeftUpLeg
      direction 0.000000 -1.000000 0.000000
      length 17.323638
      axis 0.0 0.0 0.0 xyz
      dof rx ry rz
   end
   begin
      id 24
      name LeftLeg
      direction 0.000000 -1.000000 0.000000
      length 16.270368
      axis 0.0 0.0 0.0 xyz
      dof rx ry rz
   end
   begin
      id 25
      name LeftFoot
      direction 0.000000 -0.258819 0.965926
      length 4.922846
      axis 15.0 0.0 0.0 xyz
      dof rx ry rz
   end
   begin
      id 26
      name LeftToeBase
      direction 0.000000 0.000000 1.000000
      length 2.952750
      axis 0.0 0.0 0.0 xyz
      dof rx ry rz
   end
   begin
      id 27
      name RightUpLeg
      direction 0.000000 -1.000000 0.000000
      length 17.323638
      axis 0.0 0.0 0.0 xyz
      dof rx ry rz
   end
   begin
      id 28
      name RightLeg
      direction 0.000000 -1.000000 0.000000
      length 16.270368
      axis 0.0 0.0 0.0 xyz
      dof rx ry rz
   end
   begin
      id 29
      name RightFoot
      direction 0.000000 -0.258819 0.965926
      length 4.922846
      axis 15.0 0.0 0.0 xyz
      dof rx ry rz
   end
   begin
      id 30
      name RightToeBase
      direction 0.000000 0.000000 1.000000
      length 2.952750
      axis 0.0 0.0 0.0 xyz
      dof rx ry rz
   end
:hierarchy
   begin
      root Spine_dum LeftUpLeg_dum RightUpLeg_dum
      Spine_dum Spine
      LeftUpLeg_dum LeftUpLeg
      RightUpLeg_dum RightUpLeg
      Spine Spine_dum1 Spine_dum2 Spine_dum3
      Spine_dum1 Head
      Spine_dum2 LeftShoulder
      Spine_dum3 RightShoulder
      LeftShoulder LeftArm
      LeftArm LeftForeArm
      LeftForeArm LeftHand
      LeftHand LeftHand_dum1 LeftHand_dum2
      LeftHand_dum1 LeftHandThumb1
      RightShoulder RightArm
      RightArm RightForeArm
      RightForeArm RightHand
      RightHand RightHand_dum1 RightHand_dum2
      RightHand_dum1 RightHandThumb1
      LeftUpLeg LeftLeg
      LeftLeg LeftFoot
      LeftFoot LeftToeBase
      RightUpLeg RightLeg
      RightLeg RightFoot
      RightFoot RightToeBase
   end

# File created by Blade
# Date/Time:  Fri Jan 16 17:53:05 2015
# Frame Rate: 120.000 fps
#------------------------------------------------------
:FULLY-SPECIFIED
:DEGREES
73
root -5.633313 35.359479 -10.933490 -2.072722 -5.406512 -5.609106
Spine -1.445517 0.421461 10.788088
Head 2.581808 8.605737 -8.904058
LeftShoulder -23.401431 12.188367 3.855703
LeftArm 34.934734 -52.559707 -30.650058
LeftForeArm 33.390957 -0.000000 4.218747
LeftHand -7.941118 0.000000 -5.466784
LeftHandThumb1 -26.253704 0.000000 33.147579
RightShoulder -5.778220 12.611103 -22.930509
RightArm 4.166582 19.171469 9.869715
RightForeArm -35.609813 -0.000000 16.050487
RightHand -2.784371 0.000000 21.487165
RightHandThumb1 -24.326973 -0.000000 -32.862282
LeftUpLeg 11.822504 13.243595 4.555571
LeftLeg -8.138853 -0.000000 0.000000
LeftFoot -16.585922 29.246750 -9.696735
LeftToeBase 21.790339 -0.000000 -0.000000
RightUpLeg 8.255034 -4.565185 5.517689
RightLeg -3.905911 -0.000000 0.000000
RightFoot -4.251416 -26.392297 2.588612
RightToeBase 13.371453 -0.000000 -0.000000
74
root -5.630392 35.359358 -10.933214 -2.137912 -5.290221 -5.591497
Spine -1.347104 0.318682 10.749973
Head 2.549011 8.575025 -8.891817
LeftShoulder -23.405503 12.163588 3.893365
LeftArm 34.946474 -52.560368 -30.671323
LeftForeArm 33.391573 0.000000 4.196451
LeftHand -7.846034 -0.000000 -5.476271
LeftHandThumb1 -26.253704 0.000000 33.147579
RightShoulder -5.775260 12.637048 -22.888122
RightArm 4.083376 19.173095 9.811273
RightForeArm -35.635447 0.000000 16.031931
RightHand -2.781328 0.000000 21.575009
RightHandThumb1 -24.326973 -0.000000 -32.862282
LeftUpLeg 11.843479 13.114859 4.533850
LeftLeg -8.103691 -0.000000 0.000000
LeftFoot -16.602007 29.276982 -9.686021
LeftToeBase 21.816877 -0.000000 -0.000000
RightUpLeg 8.327576 -4.719354 5.491542
RightLeg -3.925749 -0.000000 0.000000
RightFoot -4.228995 -26.412753 2.519546
RightToeBase 13.336643 -0.000000 -0.000000
75
root -5.627660 35.359466 -10.933814 -2.192087 -5.164851 -5.574959
Spine -1.267143 0.215403 10.704486
Head 2.531465 8.540637 -8.847803
LeftShoulder -23.406180 12.168896 3.935497
LeftArm 34.980583 -52.578504 -30.716794
LeftForeArm 33.402728 0.000000 4.179748
LeftHand -7.947795 -0.000000 -5.517861
LeftHandThumb1 -26.253704 0.000000 33.147579
RightShoulder -5.785631 12.657328 -22.861011
RightArm 3.989107 19.226577 9.783244
RightForeArm -35.716628 0.000000 16.001208
RightHand -2.586585 -0.000000 21.589304
RightHandThumb1 -24.326973 -0.000000 -32.862282
LeftUpLeg 11.853786 13.017710 4.516736
LeftLeg -8.077752 -0.000000 0.000000
LeftFoot -16.580553 29.265277 -9.669999
LeftToeBase 21.781363 -0.000000 -0.000000
RightUpLeg 8.392282 -4.833346 5.467604
RightLeg -3.948044 -0.000000 0.000000
RightFoot -4.221019 -26.446750 2.502806
RightToeBase 13.364407 -0.000000 -0.000000
76
root -5.625339 35.358799 -10.932348 -2.246074 -5.082507 -5.579251
Spine -1.192379 0.162910 10.698351
Head 2.541346 8.502452 -8.828644
LeftShoulder -23.377556 12.155761 3.988242
LeftArm 34.932442 -52.542991 -30.694124
LeftForeArm 33.377903 -0.000000 4.174396
LeftHand -7.867944 -0.000000 -5.559159
LeftHandThumb1 -26.253704 0.000000 33.147579
RightShoulder -5.801660 12.633527 -22.848397
RightArm 3.929936 19.263021 9.758434
RightForeArm -35.705468 -0.000000 15.968824
RightHand -2.569029 -0.000000 21.600154
RightHandThumb1 -24.326973 -0.000000 -32.862282
LeftUpLeg 11.904826 12.970609 4.525825
LeftLeg -8.100678 -0.000000 0.000000
LeftFoot -16.547378 29.257636 -9.632867
LeftToeBase 21.767872 -0.000000 -0.000000
RightUpLeg 8.460255 -4.906171 5.468515
RightLeg -3.971485 -0.000000 0.000000
RightFoot -4.205217 -26.486238 2.468862
RightToeBase 13.401013 -0.000000 -0.000000
77
root -5.618814 35.358738 -10.930709 -2.290451 -5.015888 -5.566050
Spine -1.132103 0.134488 10.688794
Head 2.572640 8.473583 -8.818808
LeftShoulder -23.366097 12.184979 3.998373
LeftArm 34.962074 -52.529461 -30.710873
LeftForeArm 33.344458 0.000000 4.151010
LeftHand -7.739174 -0.000000 -5.576451
LeftHandThumb1 -26.253704 0.000000 33.147579
RightShoulder -5.821888 12.623363 -22.843943
RightArm 3.868011 19.283484 9.721713
RightForeArm -35.674197 -0.000000 15.943750
RightHand -2.562685 0.000000 21.596472
RightHandThumb1 -24.326973 -0.000000 -32.862282
LeftUpLeg 11.957555 13.003645 4.518157
LeftLeg -8.145965 -0.000000 0.000000
LeftFoot -16.500313 29.189833 -9.604472
LeftToeBase 21.787109 -0.000000 -0.000000
RightUpLeg 8.502122 -4.989846 5.442687
RightLeg -3.965290 -0.000000 0.000000
RightFoot -4.201061 -26.504108 2.404589
RightToeBase 13.407900 -0.000000 -0.000000
78
root -5.612718 35.358039 -10.929308 -2.324895 -4.964060 -5.559635
Spine -1.085030 0.125534 10.686768
Head 2.611042 8.454867 -8.796948
LeftShoulder -23.330321 12.199562 4.031802
LeftArm 34.950682 -52.525048 -30.719675
LeftForeArm 33.353585 -0.000000 4.150614
LeftHand -7.707214 -0.000000 -5.685869
LeftHandThumb1 -26.253704 0.000000 33.147579
RightShoulder -5.841541 12.606697 -22.847070
RightArm 3.807471 19.313751 9.697150
RightForeArm -35.636915 -0.000000 15.910269
RightHand -2.497670 -0.000000 21.392286
RightHandThumb1 -24.326973 -0.000000 -32.862282
LeftUpLeg 12.004644 13.020953 4.514239
LeftLeg -8.189820 -0.000000 0.000000
LeftFoot -16.463196 29.138990 -9.585725
LeftToeBase 21.799722 -0.000000 -0.000000
RightUpLeg 8.537274 -5.005352 5.432903
RightLeg -3.968196 -0.000000 0.000000
RightFoot -4.189126 -26.571645 2.374319
RightToeBase 13.369827 -0.000000 -0.000000
79
root -5.608027 35.357548 -10.930186 -2.331265 -4.922404 -5.565539
Spine -1.077990 0.127467 10.693424
Head 2.689678 8.424978 -8.767943
LeftShoulder -23.289719 12.222557 4.066078
LeftArm 34.892658 -52.478508 -30.669311
LeftForeArm 33.297993 0.000000 4.153171
LeftHand -7.703921 -0.000000 -5.760017
LeftHandThumb1 -26.253704 0.000000 33.147579
RightShoulder -5.851697 12.560962 -22.829625
RightArm 3.757570 19.349020 9.653933
RightForeArm -35.590737 0.000000 15.880558
RightHand -2.495342 0.000000 21.361734
RightHandThumb1 -24.326973 -0.000000 -32.862282
LeftUpLeg 12.013684 13.039812 4.520606
LeftLeg -8.215062 -0.000000 0.000000
LeftFoot -16.453211 29.168050 -9.407982
LeftToeBase 22.093620 -0.000000 -0.000000
RightUpLeg 8.534709 -4.996718 5.438001
RightLeg -3.953935 -0.000000 0.000000
RightFoot -4.197032 -26.631774 2.382293
RightToeBase 13.353528 -0.000000 -0.000000
80
root -5.602823 35.357150 -10.929262 -2.346646 -4.890156 -5.555430
Spine -1.064248 0.148489 10.681435
Head 2.777313 8.385766 -8.732725
LeftShoulder -23.255299 12.271484 4.089176
LeftArm 34.896057 -52.459609 -30.669482
LeftForeArm 33.215772 -0.000000 4.162052
LeftHand -7.712195 -0.000000 -5.806797
LeftHandThumb1 -26.253704 0.000000 33.147579
RightShoulder -5.876127 12.510819 -22.816764
RightArm 3.705855 19.407795 9.625231
RightForeArm -35.570003 -0.000000 15.885563
RightHand -2.547186 -0.000000 21.332161
RightHandThumb1 -24.326973 -0.000000 -32.862282
LeftUpLeg 12.054070 13.162933 4.522148
LeftLeg -8.279072 -0.000000 0.000000
LeftFoot -16.382163 29.015972 -9.465795
LeftToeBase 21.948743 -0.000000 -0.000000
RightUpLeg 8.545110 -4.954972 5.432529
RightLeg -3.945973 -0.000000 0.000000
RightFoot -4.193860 -26.731084 2.310531
RightToeBase 13.460160 -0.000000 -0.000000
81
root -5.596840 35.356595 -10.930053 -2.352420 -4.846128 -5.553354
Spine -1.059167 0.155126 10.684492
Head 2.866994 8.338460 -8.711173
LeftShoulder -23.218117 12.269778 4.121879
LeftArm 34.876166 -52.422960 -30.657532
LeftForeArm 33.151486 -0.000000 4.175470
LeftHand -7.720541 -0.000000 -5.835662
LeftHandThumb1 -26.253704 0.000000 33.147579
RightShoulder -5.904675 12.463227 -22.814125
RightArm 3.669627 19.442986 9.597372
RightForeArm -35.528880 -0.000000 15.876878
RightHand -2.569169 0.000000 21.334176
RightHandThumb1 -24.326973 -0.000000 -32.862282
LeftUpLeg 12.074823 13.225136 4.522560
LeftLeg -8.329975 -0.000000 0.000000
LeftFoot -16.312966 28.937675 -9.401149
LeftToeBase 21.896784 -0.000000 -0.000000
RightUpLeg 8.543469 -4.932174 5.430948
RightLeg -3.932505 -0.000000 0.000000
RightFoot -4.198315 -26.809843 2.290083
RightToeBase 13.460079 -0.000000 -0.000000
82
root -5.591147 35.355834 -10.931089 -2.358519 -4.797457 -5.550341
Spine -1.059025 0.155221 10.684010
Head 2.971554 8.307518 -8.677498
LeftShoulder -23.168289 12.274240 4.159167
LeftArm 34.847442 -52.410228 -30.653542
LeftForeArm 33.116957 -0.000000 4.204181
LeftHand -7.759564 0.000000 -5.855158
LeftHandThumb1 -26.253704 0.000000 33.147579
RightShoulder -5.932409 12.430787 -22.809997
RightArm 3.636886 19.475244 9.572669
RightForeArm -35.552015 -0.000000 15.884369
RightHand -2.571544 -0.000000 21.337248
RightHandThumb1 -24.326973 -0.000000 -32.862282
LeftUpLeg 12.090269 13.273968 4.521217
LeftLeg -8.373376 -0.000000 0.000000
LeftFoot -16.261040 28.855383 -9.365273
LeftToeBase 21.893098 -0.000000 -0.000000
RightUpLeg 8.546230 -4.906954 5.430326
RightLeg -3.929517 -0.000000 0.000000
RightFoot -4.209931 -26.899079 2.290658
RightToeBase 13.507930 -0.000000 -0.000000
